<?xml version="1.0" encoding="UTF-8"?>
<svg version="1.1" xmlns="http://www.w3.org/2000/svg" width="512" height="512">
<path d="M0 0 C2.96057355 2.34131318 5.59454719 4.88986598 8.2890625 7.53125 C12.83373009 11.82707412 16.00559454 13.17680818 22.15625 13.81640625 C28.67262203 14.67799343 34.12351767 18.65549505 38.7265625 23.15625 C45.81646992 32.64219261 46.12573934 41.83306994 46.1015625 53.28125 C46.10234802 54.0639325 46.10313354 54.84661499 46.10394287 55.65301514 C46.08911085 68.11854259 45.28076509 80.40075425 43.8515625 92.78125 C43.76461121 93.5363385 43.67765991 94.291427 43.58807373 95.06939697 C42.63623001 103.16571456 41.51837308 111.19559491 39.7265625 119.15625 C40.4071875 119.32125 41.0878125 119.48625 41.7890625 119.65625 C46.7467365 122.18782821 50.40152594 126.54116134 52.91015625 131.4921875 C54.89603529 137.97242435 55.00316281 146.32797053 52.2265625 152.59375 C48.7379521 158.36671739 43.22620862 163.24674944 36.7265625 165.15625 C33.91662305 165.29385722 31.21654326 165.34636573 28.4140625 165.28125 C27.67349609 165.27222656 26.93292969 165.26320312 26.16992188 165.25390625 C24.35532783 165.23049213 22.54090179 165.19462615 20.7265625 165.15625 C20.57960938 166.66251953 20.57960938 166.66251953 20.4296875 168.19921875 C18.54282906 186.05957494 13.33497994 201.28985707 1.328125 215.03515625 C-0.98578737 218.09967921 -1.34375268 220.01446536 -1.109375 223.8203125 C0.32745166 233.05009734 3.32163516 242.88804396 10.7265625 249.15625 C16.43346276 253.05400404 22.20588797 256.77182424 28.7265625 259.15625 C29.27441406 258.56199219 29.82226562 257.96773438 30.38671875 257.35546875 C41.79762169 245.42504502 54.68041516 236.84430395 69.7265625 230.15625 C71.32564453 229.43308594 71.32564453 229.43308594 72.95703125 228.6953125 C97.17708538 218.56525184 127.65757214 217.31279941 152.7265625 225.15625 C153.41024902 225.36523926 154.09393555 225.57422852 154.79833984 225.78955078 C185.33705122 235.42993378 210.14211628 257.09936678 225.08007812 285.21386719 C234.0545469 302.82819262 238.35414905 321.16219757 238.1640625 340.90625 C238.16035645 341.6024646 238.15665039 342.2986792 238.15283203 343.01599121 C237.91856859 374.06122105 226.62240977 401.30523573 205.7265625 424.15625 C205.00984375 424.95546875 204.293125 425.7546875 203.5546875 426.578125 C192.87025126 437.90523409 179.85410952 445.87651642 165.7265625 452.15625 C164.12748047 452.87941406 164.12748047 452.87941406 162.49609375 453.6171875 C142.35176196 462.04257342 121.8201259 461.72481962 100.40949547 461.62051249 C95.90740315 461.60306017 91.40533019 461.60909661 86.9032135 461.61212158 C79.12394981 461.61420783 71.34482147 461.6017754 63.56559181 461.57917023 C52.31848322 461.54650943 41.07143932 461.53622889 29.82428845 461.53121826 C11.57170544 461.52248757 -6.68080561 461.49593272 -24.93334961 461.45800781 C-42.6524215 461.42122988 -60.37147376 461.3929465 -78.09057617 461.37597656 C-79.1847988 461.37492567 -80.27902142 461.37387477 -81.40640231 461.37279204 C-86.89639836 461.36757147 -92.38639454 461.36251674 -97.87639081 461.35754442 C-143.3421254 461.31615177 -188.80777205 461.24465497 -234.2734375 461.15625 C-234.2734375 442.67625 -234.2734375 424.19625 -234.2734375 405.15625 C-236.9134375 405.15625 -239.5534375 405.15625 -242.2734375 405.15625 C-242.4701819 397.22669372 -241.85795408 389.46790215 -241.06640625 381.58203125 C-240.940345 380.29999313 -240.81428375 379.01795502 -240.68440247 377.69706726 C-240.41787488 374.99472038 -240.14757775 372.29278283 -239.87475586 369.59106445 C-239.59857103 366.85233291 -239.3280941 364.11314067 -239.06323242 361.37329102 C-233.87058805 307.67410206 -233.87058805 307.67410206 -210.2734375 287.15625 C-199.12402434 278.48266241 -185.82635436 275.20941687 -172.40234375 271.66796875 C-171.22967453 271.35819092 -170.05700531 271.04841309 -168.84880066 270.72924805 C-163.94698503 269.43913037 -159.04416596 268.1538362 -154.13452148 266.89379883 C-124.67807742 259.56569195 -124.67807742 259.56569195 -103.75 238.8515625 C-101.97097282 235.60413193 -100.92567772 232.80879523 -100.2734375 229.15625 C-100.08394531 228.30160156 -99.89445313 227.44695312 -99.69921875 226.56640625 C-98.72021469 221.16311759 -98.72021469 221.16311759 -100.4921875 216.1640625 C-101.68941405 214.89609074 -102.91607094 213.65553976 -104.1640625 212.4375 C-115.25904696 200.43847977 -121.2734375 181.34268294 -121.2734375 165.15625 C-122.335625 165.20265625 -123.3978125 165.2490625 -124.4921875 165.296875 C-139.75605161 165.77336313 -139.75605161 165.77336313 -145.2734375 161.15625 C-150.31280795 156.33816927 -153.87811818 152.00371822 -154.609375 144.88671875 C-154.70388267 136.31487278 -154.39284011 130.39776929 -148.296875 124.12109375 C-142.86811941 119.15625 -142.86811941 119.15625 -140.2734375 119.15625 C-140.45519531 118.48464844 -140.63695312 117.81304687 -140.82421875 117.12109375 C-144.62180839 102.02810928 -146.29547791 86.5614777 -146.8359375 71.03125 C-147.44709666 54.03365175 -149.00445724 40.19636527 -162.08203125 28.00390625 C-164.70749996 25.79027577 -167.31691401 23.89984078 -170.2734375 22.15625 C-168.9781867 18.27049761 -167.5153133 17.78665498 -164.05078125 15.6796875 C-162.41882813 14.67989868 -162.41882813 14.67989868 -160.75390625 13.65991211 C-159.57331536 12.94969491 -158.39231719 12.24015433 -157.2109375 11.53125 C-156.01024642 10.804399 -154.80972612 10.07726581 -153.609375 9.34985352 C-151.23966093 7.9174504 -148.86582418 6.49228158 -146.48779297 5.07373047 C-144.57771145 3.93429706 -142.66967497 2.79140577 -140.76611328 1.64111328 C-98.68716759 -23.73269212 -41.66998826 -28.92792574 0 0 Z " fill="#FBB632" transform="translate(258.2734375,34.84375)"/>
<path d="M0 0 C0.68368652 0.20898926 1.36737305 0.41797852 2.07177734 0.63330078 C32.61048872 10.27368378 57.41555378 31.94311678 72.35351562 60.05761719 C81.3279844 77.67194262 85.62758655 96.00594757 85.4375 115.75 C85.43379395 116.4462146 85.43008789 117.1424292 85.42626953 117.85974121 C85.19200609 148.90497105 73.89584727 176.14898573 53 199 C52.28328125 199.79921875 51.5665625 200.5984375 50.828125 201.421875 C40.14368876 212.74898409 27.12754702 220.72026642 13 227 C11.93394531 227.48210937 10.86789062 227.96421875 9.76953125 228.4609375 C-18.33073111 240.21389894 -50.92321948 239.12726457 -79.0625 228.125 C-94.66199308 221.39782587 -107.65671608 212.6197121 -120 201 C-120.60328125 200.46117187 -121.2065625 199.92234375 -121.828125 199.3671875 C-142.30956174 180.32136549 -153.74431799 150.45060395 -155 123 C-155.04769531 122.19272461 -155.09539062 121.38544922 -155.14453125 120.55371094 C-156.23638934 100.3465373 -152.35193796 80.97432684 -143 63 C-142.40445312 61.83597656 -141.80890625 60.67195313 -141.1953125 59.47265625 C-127.73665099 34.6495233 -108.78462498 16.46133685 -83 5 C-81.93394531 4.51789063 -80.86789062 4.03578125 -79.76953125 3.5390625 C-55.54947712 -6.59099816 -25.06899036 -7.84345059 0 0 Z " fill="#006BDA" transform="translate(411,260)"/>
<path d="M0 0 C2.96057355 2.34131318 5.59454719 4.88986598 8.2890625 7.53125 C12.83373009 11.82707412 16.00559454 13.17680818 22.15625 13.81640625 C28.67262203 14.67799343 34.12351767 18.65549505 38.7265625 23.15625 C45.81646992 32.64219261 46.12573934 41.83306994 46.1015625 53.28125 C46.10234802 54.0639325 46.10313354 54.84661499 46.10394287 55.65301514 C46.08911085 68.11854259 45.28076509 80.40075425 43.8515625 92.78125 C43.76461121 93.5363385 43.67765991 94.291427 43.58807373 95.06939697 C42.63623001 103.16571456 41.51837308 111.19559491 39.7265625 119.15625 C40.4071875 119.32125 41.0878125 119.48625 41.7890625 119.65625 C46.7467365 122.18782821 50.40152594 126.54116134 52.91015625 131.4921875 C54.89603529 137.97242435 55.00316281 146.32797053 52.2265625 152.59375 C48.7379521 158.36671739 43.22620862 163.24674944 36.7265625 165.15625 C33.91662305 165.29385722 31.21654326 165.34636573 28.4140625 165.28125 C27.67349609 165.27222656 26.93292969 165.26320312 26.16992188 165.25390625 C24.35532783 165.23049213 22.54090179 165.19462615 20.7265625 165.15625 C20.57960938 166.66251953 20.57960938 166.66251953 20.4296875 168.19921875 C18.54282906 186.05957494 13.33497994 201.28985707 1.328125 215.03515625 C-0.83097044 217.89464118 -1.15403787 220.16073616 -1.57421875 223.6640625 C-3.26640898 229.69544445 -10.57772334 233.18367962 -15.69921875 236.12109375 C-22.32076511 239.6215348 -28.99297144 242.3838519 -36.2734375 244.15625 C-36.87414062 244.33929688 -37.47484375 244.52234375 -38.09375 244.7109375 C-52.06483252 247.56524468 -68.7279535 244.548877 -81.234375 238.14453125 C-83.19573968 237.0108678 -83.19573968 237.0108678 -85.2734375 237.15625 C-86.61981241 238.94342088 -86.61981241 238.94342088 -87.9609375 241.21875 C-92.46208166 248.16119268 -97.46557391 253.03713025 -104.671875 257.11328125 C-106.44327844 258.07471402 -106.44327844 258.07471402 -107.2734375 260.15625 C-107.41719172 263.53447416 -107.34880098 265.93015955 -106.2734375 269.15625 C-104.50341387 270.18569649 -104.50341387 270.18569649 -102.2734375 271.15625 C-100.33006729 272.37611441 -98.39331338 273.60654331 -96.4609375 274.84375 C-79.83670377 285.19298766 -62.99275906 290.69127261 -43.3359375 291.71875 C-42.55669922 291.76193359 -41.77746094 291.80511719 -40.97460938 291.84960938 C-39.07436633 291.95453077 -37.17392081 292.0557745 -35.2734375 292.15625 C-35.2734375 292.48625 -35.2734375 292.81625 -35.2734375 293.15625 C-69.37651389 294.00183458 -69.37651389 294.00183458 -84.2734375 289.15625 C-85.28567383 288.84276611 -85.28567383 288.84276611 -86.31835938 288.52294922 C-101.04507685 283.87295683 -113.53604353 276.12236451 -125.2734375 266.15625 C-126.18867188 265.46144531 -127.10390625 264.76664062 -128.046875 264.05078125 C-129.14902344 263.11298828 -129.14902344 263.11298828 -130.2734375 262.15625 C-130.2734375 261.49625 -130.2734375 260.83625 -130.2734375 260.15625 C-129.26023438 259.63675781 -128.24703125 259.11726563 -127.203125 258.58203125 C-125.8513624 257.87798823 -124.49981109 257.17353941 -123.1484375 256.46875 C-122.15070313 255.95924805 -122.15070313 255.95924805 -121.1328125 255.43945312 C-111.2640931 250.26321305 -105.01319464 243.13017726 -100.8984375 232.65625 C-100.6921875 231.50125 -100.4859375 230.34625 -100.2734375 229.15625 C-100.08394531 228.30160156 -99.89445312 227.44695312 -99.69921875 226.56640625 C-98.72021469 221.16311759 -98.72021469 221.16311759 -100.4921875 216.1640625 C-101.68941405 214.89609074 -102.91607094 213.65553976 -104.1640625 212.4375 C-115.25904696 200.43847977 -121.2734375 181.34268294 -121.2734375 165.15625 C-122.335625 165.20265625 -123.3978125 165.2490625 -124.4921875 165.296875 C-139.75605161 165.77336313 -139.75605161 165.77336313 -145.2734375 161.15625 C-150.31280795 156.33816927 -153.87811818 152.00371822 -154.609375 144.88671875 C-154.70388267 136.31487278 -154.39284011 130.39776929 -148.296875 124.12109375 C-142.86811941 119.15625 -142.86811941 119.15625 -140.2734375 119.15625 C-140.45519531 118.48464844 -140.63695312 117.81304687 -140.82421875 117.12109375 C-144.62180839 102.02810928 -146.29547791 86.5614777 -146.8359375 71.03125 C-147.44709666 54.03365175 -149.00445724 40.19636527 -162.08203125 28.00390625 C-164.70749996 25.79027577 -167.31691401 23.89984078 -170.2734375 22.15625 C-168.9781867 18.27049761 -167.5153133 17.78665498 -164.05078125 15.6796875 C-162.41882813 14.67989868 -162.41882813 14.67989868 -160.75390625 13.65991211 C-159.57331536 12.94969491 -158.39231719 12.24015433 -157.2109375 11.53125 C-156.01024642 10.804399 -154.80972612 10.07726581 -153.609375 9.34985352 C-151.23966093 7.9174504 -148.86582418 6.49228158 -146.48779297 5.07373047 C-144.57771145 3.93429706 -142.66967497 2.79140577 -140.76611328 1.64111328 C-98.68716759 -23.73269212 -41.66998826 -28.92792574 0 0 Z " fill="#F1B8A0" transform="translate(258.2734375,34.84375)"/>
<path d="M0 0 C2.96057355 2.34131318 5.59454719 4.88986598 8.2890625 7.53125 C12.83373009 11.82707412 16.00559454 13.17680818 22.15625 13.81640625 C28.67262203 14.67799343 34.12351767 18.65549505 38.7265625 23.15625 C45.81646992 32.64219261 46.12573934 41.83306994 46.1015625 53.28125 C46.10234802 54.0639325 46.10313354 54.84661499 46.10394287 55.65301514 C46.08911085 68.11854259 45.28076509 80.40075425 43.8515625 92.78125 C43.76461121 93.5363385 43.67765991 94.291427 43.58807373 95.06939697 C42.63623001 103.16571456 41.51837308 111.19559491 39.7265625 119.15625 C39.21609375 119.00285156 38.705625 118.84945312 38.1796875 118.69140625 C34.9516287 117.98719597 31.77238249 117.80736796 28.4765625 117.59375 C27.21328125 117.50996094 25.95 117.42617187 24.6484375 117.33984375 C23.68421875 117.27925781 22.72 117.21867188 21.7265625 117.15625 C21.7172168 116.22876953 21.70787109 115.30128906 21.69824219 114.34570312 C21.65396404 110.8711712 21.59223536 107.39782594 21.51904297 103.92382812 C21.4909931 102.42654553 21.46969976 100.92911925 21.45556641 99.43164062 C21.53826007 86.57206915 21.53826007 86.57206915 15.31567383 75.65478516 C10.12994145 70.98903585 5.12246113 69.66075963 -1.66015625 69.76171875 C-7.35636065 70.38368269 -12.82222204 71.84310372 -18.37451172 73.22558594 C-42.56002006 79.23659156 -65.01599537 77.58458323 -89.06738281 71.83325195 C-97.18914859 69.95310953 -104.83585308 68.51745289 -112.4140625 72.74609375 C-116.61367069 75.93109072 -119.61567265 80.18295544 -121.2734375 85.15625 C-121.42612931 87.59405377 -121.53026447 90.00908901 -121.58984375 92.44921875 C-121.61062485 93.15524734 -121.63140594 93.86127594 -121.65281677 94.58869934 C-121.71811241 96.84028551 -121.77710397 99.09198662 -121.8359375 101.34375 C-121.87914175 102.8717566 -121.92275666 104.39975164 -121.96679688 105.92773438 C-122.07377324 109.67045562 -122.17509672 113.4132923 -122.2734375 117.15625 C-123.23765625 117.21683594 -124.201875 117.27742187 -125.1953125 117.33984375 C-126.45859375 117.42363281 -127.721875 117.50742188 -129.0234375 117.59375 C-130.27640625 117.67496094 -131.529375 117.75617188 -132.8203125 117.83984375 C-135.45661303 118.08140522 -137.75381044 118.39908934 -140.2734375 119.15625 C-144.52121539 103.46056007 -146.27163619 87.24657492 -146.8359375 71.03125 C-147.44709666 54.03365175 -149.00445724 40.19636527 -162.08203125 28.00390625 C-164.70749996 25.79027577 -167.31691401 23.89984078 -170.2734375 22.15625 C-168.9781867 18.27049761 -167.5153133 17.78665498 -164.05078125 15.6796875 C-162.41882813 14.67989868 -162.41882813 14.67989868 -160.75390625 13.65991211 C-159.57331536 12.94969491 -158.39231719 12.24015433 -157.2109375 11.53125 C-156.01024642 10.804399 -154.80972612 10.07726581 -153.609375 9.34985352 C-151.23966093 7.9174504 -148.86582418 6.49228158 -146.48779297 5.07373047 C-144.57771145 3.93429706 -142.66967497 2.79140577 -140.76611328 1.64111328 C-98.68716759 -23.73269212 -41.66998826 -28.92792574 0 0 Z " fill="#906557" transform="translate(258.2734375,34.84375)"/>
<path d="M0 0 C0.99 0.495 0.99 0.495 2 1 C1.24976563 1.70382812 0.49953125 2.40765625 -0.2734375 3.1328125 C-21.7742556 23.70050287 -37.46986464 52.77768375 -38.203125 82.9921875 C-38.61542966 118.90444512 -28.98279743 148.5111474 -4 175 C-3.37609375 175.68835938 -2.7521875 176.37671875 -2.109375 177.0859375 C16.4258119 196.78930845 46.48660927 209.34375754 73.28125 210.31640625 C92.93657795 210.66134001 109.47379872 207.26849691 128 201 C130 200.33333333 132 199.66666667 134 199 C122.20412082 211.9754671 104.56130035 219.328864 88 224 C86.9378125 224.3196875 85.875625 224.639375 84.78125 224.96875 C54.7290465 232.5520163 22.6440868 225.68216472 -3.94140625 210.84375 C-12.78864338 205.51054959 -20.4949385 199.06510962 -28 192 C-28.60328125 191.46117187 -29.2065625 190.92234375 -29.828125 190.3671875 C-50.30956174 171.32136549 -61.74431799 141.45060395 -63 114 C-63.04769531 113.19272461 -63.09539062 112.38544922 -63.14453125 111.55371094 C-64.23638934 91.3465373 -60.35193796 71.97432684 -51 54 C-50.10667969 52.25396484 -50.10667969 52.25396484 -49.1953125 50.47265625 C-37.7758187 29.41056084 -21.56795921 10.99699648 0 0 Z " fill="#0159BD" transform="translate(319,269)"/>
<path d="M0 0 C-1.94770884 1.29847256 -3.92646812 2.55193845 -5.9375 3.75 C-10.10913689 6.81487608 -12.36865364 10.10596091 -14 15 C-14.09910771 17.01482812 -14.13826994 19.03279679 -14.14526367 21.05004883 C-14.15164352 22.30018265 -14.15802338 23.55031647 -14.16459656 24.83833313 C-14.16612822 26.21123211 -14.16724058 27.58413161 -14.16796875 28.95703125 C-14.171188 30.37977633 -14.17455256 31.80252109 -14.17805481 33.2252655 C-14.18405378 36.22220623 -14.18589466 39.21911814 -14.18530273 42.21606445 C-14.18522241 45.24639986 -14.19200751 48.2765811 -14.20581055 51.30688477 C-14.88117593 103.49370389 -14.88117593 103.49370389 9.79296875 147.88671875 C20.99562868 158.51610823 36.05713362 165.37824206 51.5 165.1484375 C63.84071051 164.41570781 74.64123986 157.98379744 84.3828125 150.890625 C87 149 87 149 89 148 C89.78515625 151.21875 89.78515625 151.21875 90 155 C82.39976298 165.06827097 66.78186876 171.1317548 55 174 C54.39929688 174.18304688 53.79859375 174.36609375 53.1796875 174.5546875 C39.20860498 177.40899468 22.545484 174.392627 10.0390625 167.98828125 C8.07769782 166.8546178 8.07769782 166.8546178 6 167 C4.65362509 168.78717088 4.65362509 168.78717088 3.3125 171.0625 C-1.18864416 178.00494268 -6.19213641 182.88088025 -13.3984375 186.95703125 C-15.16984094 187.91846402 -15.16984094 187.91846402 -16 190 C-16.14375422 193.37822416 -16.07536348 195.77390955 -15 199 C-13.22997637 200.02944649 -13.22997637 200.02944649 -11 201 C-9.05662979 202.21986441 -7.11987588 203.45029331 -5.1875 204.6875 C11.43673373 215.03673766 28.28067844 220.53502261 47.9375 221.5625 C49.10635742 221.62727539 49.10635742 221.62727539 50.29882812 221.69335938 C52.19907117 221.79828077 54.09951669 221.8995245 56 222 C56 222.33 56 222.66 56 223 C21.89692361 223.84558458 21.89692361 223.84558458 7 219 C5.98776367 218.68651611 5.98776367 218.68651611 4.95507812 218.36669922 C-9.77163935 213.71670683 -22.26260603 205.96611451 -34 196 C-34.91523438 195.30519531 -35.83046875 194.61039063 -36.7734375 193.89453125 C-37.50820312 193.26933594 -38.24296875 192.64414062 -39 192 C-39 191.34 -39 190.68 -39 190 C-37.98679688 189.48050781 -36.97359375 188.96101562 -35.9296875 188.42578125 C-34.5779249 187.72173823 -33.22637359 187.01728941 -31.875 186.3125 C-31.20984375 185.97283203 -30.5446875 185.63316406 -29.859375 185.28320312 C-19.9906556 180.10696305 -13.73975714 172.97392726 -9.625 162.5 C-9.41875 161.345 -9.2125 160.19 -9 159 C-8.81050781 158.14535156 -8.62101562 157.29070312 -8.42578125 156.41015625 C-7.44677719 151.00686759 -7.44677719 151.00686759 -9.21875 146.0078125 C-10.41597655 144.73984074 -11.64263344 143.49928976 -12.890625 142.28125 C-23.98560946 130.28222977 -30 111.18643294 -30 95 C-31.0621875 95.04640625 -32.124375 95.0928125 -33.21875 95.140625 C-48.48261411 95.61711313 -48.48261411 95.61711313 -54 91 C-59.03937045 86.18191927 -62.60468068 81.84746822 -63.3359375 74.73046875 C-63.4299791 66.20089544 -63.08815625 60.375197 -57.1640625 54.03515625 C-51.11428494 48.36783589 -45.97314238 46.71748788 -37.625 46.875 C-36.37976563 46.89304688 -35.13453125 46.91109375 -33.8515625 46.9296875 C-32.91054687 46.95289063 -31.96953125 46.97609375 -31 47 C-31.02094727 46.07251953 -31.04189453 45.14503906 -31.06347656 44.18945312 C-31.13205499 40.71539171 -31.18199327 37.24205989 -31.21972656 33.76757812 C-31.23971919 32.2700661 -31.26692299 30.77263092 -31.30175781 29.27539062 C-31.68364162 12.42757574 -31.68364162 12.42757574 -25.25390625 4.9765625 C-17.11373592 -1.52805398 -10.14886898 -2.08181928 0 0 Z " fill="#D08D77" transform="translate(167,105)"/>
<path d="M0 0 C1.59665192 2.99110775 2.65873341 5.96154864 3.6875 9.1875 C7.98271534 20.89040555 15.46800278 26.10741421 26 32 C27.66983536 32.99469977 29.3377112 33.9927395 31 35 C30.57847656 35.55429687 30.15695312 36.10859375 29.72265625 36.6796875 C29.17480469 37.40414062 28.62695312 38.12859375 28.0625 38.875 C27.51722656 39.59429687 26.97195313 40.31359375 26.41015625 41.0546875 C24.96035376 42.94357079 24.96035376 42.94357079 24 45 C22.45301087 45.91412994 20.89840314 46.81645659 19.3203125 47.67578125 C17.59528915 48.66026427 15.90737995 49.71035779 14.2421875 50.79296875 C-7.86406354 65.11493841 -32.36080942 70.57645792 -58.5 65.875 C-73.94790224 62.4774141 -96.99951354 54.5007297 -106 41 C-106.4375 38.125 -106.4375 38.125 -106 35 C-103.43731068 31.79663835 -100.42223419 29.56741028 -97.125 27.1875 C-91.23980494 22.87094861 -86.43342348 17.46291479 -83 11 C-81.03125 11.65625 -81.03125 11.65625 -79.0625 12.3125 C-78.23621094 12.58578125 -77.40992188 12.8590625 -76.55859375 13.140625 C-74.96204105 13.67687171 -73.36990888 14.22669945 -71.78515625 14.796875 C-57.38608823 19.90034215 -41.51682193 21.33927424 -27 16 C-26.01386719 15.64808594 -25.02773437 15.29617188 -24.01171875 14.93359375 C-14.90262479 11.4265347 -7.46723769 6.22269807 0 0 Z " fill="#F1B8A0" transform="translate(256,260)"/>
<path d="M0 0 C1.95342755 1.88084823 3.39741005 3.78465506 5 6 C4.02353516 6.26103516 3.04707031 6.52207031 2.04101562 6.79101562 C-1.66904267 7.78777863 -5.37254754 8.8073337 -9.07470703 9.83300781 C-10.66128668 10.26934117 -12.24946316 10.69991941 -13.83935547 11.12402344 C-27.70456194 14.82960744 -42.24147234 19.32775697 -52.6171875 29.75 C-54 31 -54 31 -56 31 C-56.26296875 31.57878906 -56.5259375 32.15757812 -56.796875 32.75390625 C-58.06060061 35.11313426 -59.51616016 36.90297172 -61.25 38.9375 C-71.03952258 51.33756193 -74.22682765 65.93738235 -75.53515625 81.30078125 C-75.65958426 82.66791396 -75.78504783 84.03495277 -75.91148376 85.40190125 C-76.2400522 88.97828477 -76.55706152 92.55558831 -76.87078857 96.13330078 C-77.373363 101.84610478 -77.89237917 107.55742042 -78.41396904 113.26851463 C-78.59198822 115.23807162 -78.7638763 117.20817978 -78.93556213 119.17829895 C-79.04585251 120.4063475 -79.15614288 121.63439606 -79.26977539 122.8996582 C-79.40942467 124.48989555 -79.40942467 124.48989555 -79.55189514 126.11225891 C-80.20319762 131.762935 -81.13508549 137.37805567 -82 143 C-92.56 143 -103.12 143 -114 143 C-114 131.74554747 -114 131.74554747 -113.49682617 126.5949707 C-113.33116402 124.86685905 -113.33116402 124.86685905 -113.16215515 123.10383606 C-113.04032364 121.89007797 -112.91849213 120.67631989 -112.79296875 119.42578125 C-112.6669075 118.14374313 -112.54084625 116.86170502 -112.41096497 115.54081726 C-112.14443738 112.83847038 -111.87414025 110.13653283 -111.60131836 107.43481445 C-111.32513353 104.69608291 -111.0546566 101.95689067 -110.78979492 99.21704102 C-105.59715055 45.51785206 -105.59715055 45.51785206 -82 25 C-68.45424944 14.46220287 -50.72243731 11.0523145 -34.48388672 6.58642578 C-30.97647018 5.61850663 -27.47467453 4.63177898 -23.97265625 3.64453125 C-21.73208975 3.02488733 -19.49121488 2.40635714 -17.25 1.7890625 C-16.20932373 1.49335358 -15.16864746 1.19764465 -14.09643555 0.89297485 C-4.34691706 -1.74803981 -4.34691706 -1.74803981 0 0 Z " fill="#F79B30" transform="translate(130,297)"/>
<path d="M0 0 C0.72256485 0.00141495 1.4451297 0.0028299 2.18959045 0.00428772 C4.4714899 0.009834 6.75328704 0.02237605 9.03515625 0.03515625 C10.59309753 0.04017821 12.15104037 0.04473989 13.70898438 0.04882812 C17.50524706 0.05978575 21.30143438 0.07701253 25.09765625 0.09765625 C22.38515551 1.57295589 20.04341674 2.42972855 17 2.921875 C-11.52843211 7.87361854 -34.99904582 21.0989692 -58.98901367 36.87353516 C-60.90234375 38.09765625 -60.90234375 38.09765625 -62.90234375 39.09765625 C-62.90234375 39.75765625 -62.90234375 40.41765625 -62.90234375 41.09765625 C-61.37763961 42.37002591 -61.37763961 42.37002591 -59.40234375 43.66015625 C-50.25548987 50.36245272 -43.40477585 58.99037654 -41.30078125 70.34375 C-39.01098905 91.91718433 -39.01098905 91.91718433 -43.83984375 98.09765625 C-44.85870927 99.09966111 -45.87920001 100.10002025 -46.90234375 101.09765625 C-48.06073418 104.57282754 -48.13035593 107.77035645 -48.21875 111.390625 C-48.2395311 112.09665359 -48.26031219 112.80268219 -48.28172302 113.53010559 C-48.34701866 115.78169176 -48.40601022 118.03339287 -48.46484375 120.28515625 C-48.508048 121.81316285 -48.55166291 123.34115789 -48.59570312 124.86914062 C-48.70267949 128.61186187 -48.80400297 132.35469855 -48.90234375 136.09765625 C-49.8665625 136.15824219 -50.83078125 136.21882812 -51.82421875 136.28125 C-53.0875 136.36503906 -54.35078125 136.44882813 -55.65234375 136.53515625 C-56.9053125 136.61636719 -58.15828125 136.69757813 -59.44921875 136.78125 C-62.08551928 137.02281147 -64.38271669 137.34049559 -66.90234375 138.09765625 C-71.15012164 122.40196632 -72.90054244 106.18798117 -73.46484375 89.97265625 C-74.07600291 72.975058 -75.63336349 59.13777152 -88.7109375 46.9453125 C-91.33640621 44.73168202 -93.94582026 42.84124703 -96.90234375 41.09765625 C-95.60709295 37.21190386 -94.14421955 36.72806123 -90.6796875 34.62109375 C-89.04773438 33.62130493 -89.04773438 33.62130493 -87.3828125 32.60131836 C-86.20222161 31.89110116 -85.02122344 31.18156058 -83.83984375 30.47265625 C-82.63915267 29.74580525 -81.43863237 29.01867206 -80.23828125 28.29125977 C-77.86856718 26.85885665 -75.49473043 25.43368783 -73.11669922 24.01513672 C-71.2066177 22.87570331 -69.29858122 21.73281202 -67.39501953 20.58251953 C-47.35650067 8.49919687 -23.63522463 -0.17790159 0 0 Z " fill="#785349" transform="translate(184.90234375,15.90234375)"/>
<path d="M0 0 C21.12 0 42.24 0 64 0 C64 18.48 64 36.96 64 56 C42.88 56 21.76 56 0 56 C0 37.52 0 19.04 0 0 Z " fill="#F2B9A1" transform="translate(24,440)"/>
<path d="M0 0 C5.57221775 0.51435856 10.60980725 1.37700439 16 3 C13.70076068 15.04075331 11.13780937 27.01776157 8.46484375 38.98046875 C8.11582822 40.54619819 7.76690823 42.11194893 7.41807556 43.67771912 C6.67124152 47.02903825 5.92373065 50.38020545 5.17572021 53.73126221 C3.97707406 59.10158067 2.78068259 64.47240017 1.58447266 69.84326172 C-0.28689935 78.24442119 -2.16065657 86.64504595 -4.03625298 95.04526329 C-5.1071805 99.84174312 -6.1774585 104.63836603 -7.24633789 109.43530273 C-8.3045732 114.18440457 -9.36432122 118.93316642 -10.42517281 123.68168449 C-10.82401643 125.46817007 -11.22232253 127.25477575 -11.6200695 129.04150581 C-12.16835131 131.50399147 -12.71857574 133.96603525 -13.26928711 136.42797852 C-13.43078751 137.15544785 -13.5922879 137.88291718 -13.75868225 138.63243103 C-14.39688153 141.47759839 -15.07707664 144.23122991 -16 147 C-21 146 -26 145 -31 144 C-30.63514727 134.63468645 -28.78577727 125.89590278 -26.59350586 116.83154297 C-25.55307367 112.52515517 -24.54295119 108.21164972 -23.53125 103.8984375 C-23.32052856 103.00227722 -23.10980713 102.10611694 -22.8927002 101.18280029 C-20.62390561 91.48438631 -18.55818531 81.74484955 -16.5 72 C-13.50235889 57.84463761 -10.38718054 43.72184494 -7.125 29.625 C-6.93768311 28.81434082 -6.75036621 28.00368164 -6.55737305 27.16845703 C-4.45662978 18.0903447 -2.30193707 9.02966146 0 0 Z " fill="#F9FBFE" transform="translate(384,303)"/>
<path d="M0 0 C2.5534631 1.13476851 4.19946013 2.68756033 6.18608093 4.64512634 C6.90408875 5.33219666 7.62209656 6.01926697 8.36186218 6.72715759 C9.87358093 8.83262634 9.87358093 8.83262634 9.69891357 10.71208191 C8.65060208 13.40553058 7.2333952 14.83319613 5.17997742 16.86680603 C4.39924362 17.64731323 3.61850983 18.42782043 2.81411743 19.23197937 C1.96620132 20.06441162 1.11828522 20.89684387 0.24467468 21.75450134 C-0.61955612 22.6144873 -1.48378693 23.47447327 -2.37420654 24.36051941 C-5.13882518 27.1083321 -7.91368768 29.8455367 -10.68891907 32.58262634 C-12.56395158 34.4426146 -14.43830925 36.30328342 -16.31196594 38.16465759 C-20.90897924 42.72857607 -25.51444862 47.28382572 -30.12641907 51.83262634 C-28.69651036 55.11009443 -26.95304722 57.22782967 -24.3952179 59.71153259 C-23.63135269 60.45910828 -22.86748749 61.20668396 -22.08047485 61.97691345 C-21.25645676 62.77492371 -20.43243866 63.57293396 -19.58345032 64.39512634 C-17.85321091 66.0952181 -16.12340616 67.79575233 -14.39399719 69.49668884 C-11.65990115 72.17484619 -8.92212391 74.84893613 -6.1764679 77.51524353 C-3.53026206 80.08921337 -0.89970364 82.678352 1.72904968 85.27012634 C2.55914047 86.0681366 3.38923126 86.86614685 4.24447632 87.68833923 C4.99888504 88.43591492 5.75329376 89.1834906 6.53056335 89.95372009 C7.20181747 90.60783875 7.87307159 91.2619574 8.56466675 91.93589783 C9.87358093 93.83262634 9.87358093 93.83262634 9.68920898 95.93907166 C8.57817808 98.51843093 7.02808109 100.14893138 5.06108093 102.14512634 C4.37401062 102.86313416 3.68694031 103.58114197 2.97904968 104.32090759 C0.87358093 105.83262634 0.87358093 105.83262634 -0.96096802 105.70187378 C-3.93959481 104.50620431 -5.61570136 102.7098149 -7.87910461 100.43638611 C-8.33650024 99.98103485 -8.79389587 99.52568359 -9.26515198 99.05653381 C-10.77183717 97.5528514 -12.26751806 96.03871514 -13.76313782 94.52403259 C-14.80819306 93.47591905 -15.85384068 92.42839585 -16.90005493 91.38143921 C-19.08924681 89.18764759 -21.27343905 86.98904042 -23.45381165 84.78648376 C-26.25148277 81.96049572 -29.05779072 79.14328923 -31.86741924 76.32919407 C-34.0254371 74.16702388 -36.18060875 72.00203686 -38.33474159 69.83599663 C-39.36893286 68.79610124 -40.40359848 67.75667738 -41.43874168 66.71772957 C-42.88242806 65.26718416 -44.32226874 63.81281427 -45.76191711 62.35826111 C-46.58258163 61.53076859 -47.40324615 60.70327606 -48.2487793 59.85070801 C-50.41747958 57.51979536 -51.03180806 56.32933412 -51.62641907 53.20762634 C-49.99474972 42.19385827 -33.56278904 30.96590651 -25.87373352 23.22984314 C-23.90476226 21.24741332 -21.94336626 19.25791015 -19.98799133 17.2620697 C-17.15879765 14.37437805 -14.3096664 11.50717228 -11.45845032 8.64122009 C-10.58235611 7.74245651 -9.7062619 6.84369293 -8.80361938 5.91769409 C-7.57665596 4.69500572 -7.57665596 4.69500572 -6.3249054 3.44761658 C-5.25071098 2.36129189 -5.25071098 2.36129189 -4.15481567 1.25302124 C-2.12641907 -0.16737366 -2.12641907 -0.16737366 0 0 Z " fill="#F8FBFE" transform="translate(339.1264190673828,323.16737365722656)"/>
<path d="M0 0 C2.97862679 1.19566947 4.65473335 2.99205888 6.9181366 5.26548767 C7.37553223 5.72083893 7.83292786 6.17619019 8.30418396 6.64533997 C9.81086915 8.14902238 11.30655004 9.66315864 12.8021698 11.17784119 C13.84722504 12.22595473 14.89287266 13.27347793 15.93908691 14.32043457 C18.12827879 16.51422619 20.31247104 18.71283336 22.49284363 20.91539001 C25.29051475 23.74137806 28.0968227 26.55858455 30.90645123 29.37267971 C33.06446908 31.53484989 35.21964073 33.69983692 37.37377357 35.86587715 C38.40796485 36.90577254 39.44263047 37.9451964 40.47777367 38.98414421 C41.92146004 40.43468962 43.36130073 41.88905951 44.8009491 43.34361267 C45.62161362 44.17110519 46.44227814 44.99859772 47.28781128 45.85116577 C49.45651157 48.18207842 50.07084004 49.37253966 50.66545105 52.49424744 C49.42830525 60.84498161 39.05393485 68.11210201 33.2943573 73.83799744 C32.37202805 74.75891174 31.44969879 75.67982605 30.49942017 76.62864685 C28.07356628 79.05072297 25.64472253 81.46977822 23.2151947 83.88816833 C20.72605989 86.3669858 18.2398321 88.84871541 15.75334167 91.33018494 C10.89351647 96.17935668 6.03051927 101.02533607 1.16545105 105.86924744 C-2.24514298 104.26389457 -4.45247379 102.46405843 -7.08454895 99.74424744 C-7.7909552 99.01979431 -8.49736145 98.29534119 -9.22517395 97.54893494 C-9.7562677 96.99463806 -10.28736145 96.44034119 -10.83454895 95.86924744 C-9.40196123 92.59728292 -7.64629579 90.43720787 -5.11921692 87.92686462 C-4.35857941 87.16637817 -3.59794189 86.40589172 -2.81425476 85.62236023 C-1.5829332 84.40652252 -1.5829332 84.40652252 -0.32673645 83.16612244 C0.51388336 82.32833252 1.35450317 81.4905426 2.22059631 80.62736511 C4.90589106 77.95326313 7.5980576 75.28620019 10.29045105 72.61924744 C12.1125226 70.80720682 13.93414282 68.99471225 15.7552948 67.18174744 C20.22012357 62.73896708 24.69061388 58.30194578 29.16545105 53.86924744 C27.73554235 50.59177934 25.9920792 48.47404411 23.43424988 45.99034119 C22.28845207 44.86897766 22.28845207 44.86897766 21.11950684 43.72496033 C20.29548874 42.92695007 19.47147064 42.12893982 18.6224823 41.30674744 C16.89224289 39.60665568 15.16243815 37.90612145 13.43302917 36.20518494 C10.69893314 33.52702759 7.96115589 30.85293765 5.21549988 28.18663025 C2.56929404 25.61266041 -0.06126438 23.02352177 -2.6900177 20.43174744 C-3.52010849 19.63373718 -4.35019928 18.83572693 -5.20544434 18.01353455 C-5.95985306 17.26595886 -6.71426178 16.51838318 -7.49153137 15.74815369 C-8.16278549 15.09403503 -8.83403961 14.43991638 -9.52563477 13.76597595 C-10.83454895 11.86924744 -10.83454895 11.86924744 -10.650177 9.76280212 C-9.5391461 7.18344285 -7.9890491 5.5529424 -6.02204895 3.55674744 C-4.99144348 2.47973572 -4.99144348 2.47973572 -3.9400177 1.38096619 C-1.83454895 -0.13075256 -1.83454895 -0.13075256 0 0 Z " fill="#F9FBFE" transform="translate(413.8345489501953,323.13075256347656)"/>
<path d="M0 0 C2.2303161 -0.04071227 4.46084835 -0.06969005 6.69140625 -0.09375 C7.93349854 -0.11115234 9.17559082 -0.12855469 10.45532227 -0.14648438 C17.61184151 0.14925993 22.1415184 2.73857732 26.9375 7.9375 C32.10385285 14.08094085 32.45193365 19.71792011 32.3046875 27.5546875 C31.60939797 35.41680755 27.95245981 39.54958704 22.09765625 44.5546875 C17.09159279 48.00393048 12.64135322 48.26333797 6.6875 48.125 C5.94693359 48.11597656 5.20636719 48.10695312 4.44335938 48.09765625 C2.62876533 48.07424213 0.81433929 48.03837615 -1 48 C-1.07681704 37.36297381 -0.83736025 26.75524404 -0.5 16.125 C-0.45162761 14.55078724 -0.40344948 12.9765685 -0.35546875 11.40234375 C-0.23920939 7.6014901 -0.12035313 3.80072613 0 0 Z " fill="#CF8D77" transform="translate(280,152)"/>
<path d="M0 0 C0.86238281 0.31453125 1.72476562 0.6290625 2.61328125 0.953125 C12.92604842 4.56858297 23.27720891 6.93392938 34 9 C34 9.33 34 9.66 34 10 C22.78 10 11.56 10 0 10 C0 6.7 0 3.4 0 0 Z " fill="#EBB6A1" transform="translate(328,486)"/>
</svg>
